<svg xmlns="http://www.w3.org/2000/svg" viewBox="0 0 512 512">
  <defs>
    <linearGradient id="bg" x1="0%" y1="0%" x2="100%" y2="100%">
      <stop offset="0%" stop-color="#1e1b4b"/>
      <stop offset="50%" stop-color="#312e81"/>
      <stop offset="100%" stop-color="#4c1d95"/>
    </linearGradient>
    <radialGradient id="ball" cx="40%" cy="35%">
      <stop offset="0%" stop-color="#fefefe"/>
      <stop offset="80%" stop-color="#f1f5f9"/>
      <stop offset="100%" stop-color="#cbd5e1"/>
    </radialGradient>
    <filter id="glow">
      <feGaussianBlur stdDeviation="8" result="blur"/>
      <feMerge><feMergeNode in="blur"/><feMergeNode in="SourceGraphic"/></feMerge>
    </filter>
  </defs>
  <rect width="512" height="512" rx="96" fill="url(#bg)"/>
  <!-- 야구공 -->
  <g transform="translate(256 256)">
    <circle r="150" fill="url(#ball)" stroke="#94a3b8" stroke-width="3"/>
    <!-- 빨간 실밥 (좌측) -->
    <path d="M -110 -70 Q -90 0 -110 70" fill="none" stroke="#dc2626" stroke-width="6" stroke-linecap="round"/>
    <path d="M -118 -55 L -100 -45 M -125 -25 L -107 -20 M -128 5 L -110 5 M -125 35 L -107 30 M -118 55 L -100 45" stroke="#dc2626" stroke-width="4" stroke-linecap="round"/>
    <!-- 빨간 실밥 (우측) -->
    <path d="M 110 -70 Q 90 0 110 70" fill="none" stroke="#dc2626" stroke-width="6" stroke-linecap="round"/>
    <path d="M 118 -55 L 100 -45 M 125 -25 L 107 -20 M 128 5 L 110 5 M 125 35 L 107 30 M 118 55 L 100 45" stroke="#dc2626" stroke-width="4" stroke-linecap="round"/>
  </g>
  <!-- KBO 텍스트 -->
  <text x="256" y="465" font-family="Arial Black, sans-serif" font-size="60" font-weight="900" fill="#a78bfa" text-anchor="middle" filter="url(#glow)">KBO</text>
</svg>